<?xml version="1.0" encoding="utf-8"?>

<!DOCTYPE svg PUBLIC "-//W3C//DTD SVG 1.1//EN" "http://www.w3.org/Graphics/SVG/1.1/DTD/svg11.dtd">
<!-- Uploaded to: SVG Repo, www.svgrepo.com, Generator: SVG Repo Mixer Tools -->
<svg fill="#50fa7b" version="1.1" id="Layer_1" xmlns="http://www.w3.org/2000/svg" xmlns:xlink="http://www.w3.org/1999/xlink" 
	 width="800px" height="800px" viewBox="710.081 796 200 200" enable-background="new 710.081 796 200 200" xml:space="preserve">
<g>
	<path d="M757.859,883.623h-31.521c-3.31,0-5.995,2.685-5.995,5.996v100.385c0,3.312,2.685,5.996,5.995,5.996h25.424
		c3.259,0,5.921-2.604,5.995-5.863l0.102-4.605V883.623L757.859,883.623z"/>
	<path d="M874.249,868.261c-15.132,0-40.775,0-40.775,0s1.458-7.302,5.521-39.328C842.448,801.717,823.446,796,811.168,796
		l-41.794,99.999v87.216l21.422,5.784c9.838,2.656,19.988,4.004,30.179,4.004h29.067c11.352,0,21.403-7.374,24.826-18.197
		c9.536-30.143,19.473-61.532,23.368-73.899C904.884,879.802,889.386,868.261,874.249,868.261z"/>
</g>
</svg>
