<?xml version="1.0" encoding="iso-8859-1"?>
<!-- Uploaded to: SVG Repo, www.svgrepo.com, Generator: SVG Repo Mixer Tools -->
<svg height="800px" width="800px" version="1.1" id="Layer_1" xmlns="http://www.w3.org/2000/svg" xmlns:xlink="http://www.w3.org/1999/xlink" 
	 viewBox="0 0 512 512" xml:space="preserve">
<path fill="#bd93f9" fill-opacity="0.24" d="M443.143,204.359c3.514-11.487,5.418-23.68,5.418-36.318c0-68.481-55.515-123.996-123.997-123.996
	c-42.254,0-79.547,21.151-101.93,53.427c22.071,19.209,36.041,47.488,36.041,79.045c0,57.869-46.913,104.782-104.782,104.782
	c-45.403,0-84.051-28.883-98.6-69.275c-24.564,16.74-40.705,44.922-40.705,76.889l0,0c0,51.368,41.643,93.01,93.01,93.01h105.409
	v-64.611h85.99v64.611h105.409c51.368,0,93.01-41.643,93.01-93.01l0,0C497.413,251.376,475.162,219.054,443.143,204.359z"/>
<path fill="#bd93f9" d="M460.126,196.887c2.006-9.457,3.02-19.116,3.02-28.846c0-76.415-62.169-138.583-138.584-138.583
	c-45.406,0-87.993,22.319-113.916,59.703c-4.239,6.112-3.2,14.434,2.41,19.316c19.721,17.164,31.031,41.965,31.031,68.042
	c0,48.181-37.973,87.658-85.561,90.078c-1.535,0.077-3.081,0.118-4.634,0.118c-1.389,0-2.766-0.042-4.14-0.105
	c-0.492-0.023-0.982-0.057-1.472-0.088c-0.858-0.052-1.712-0.118-2.564-0.195c-0.611-0.057-1.224-0.112-1.832-0.181
	c-0.672-0.074-1.341-0.166-2.009-0.255c-2.862-0.387-5.692-0.899-8.478-1.552c-0.158-0.036-0.315-0.071-0.473-0.109
	c-9.903-2.381-19.262-6.414-27.712-11.839c-0.179-0.115-0.36-0.229-0.538-0.346c-0.756-0.492-1.501-0.998-2.241-1.513
	c-0.372-0.258-0.74-0.522-1.106-0.788c-0.618-0.443-1.236-0.888-1.842-1.346c-0.963-0.729-1.915-1.472-2.847-2.238
	c-0.152-0.124-0.298-0.257-0.449-0.382c-0.915-0.764-1.818-1.542-2.701-2.341c-0.182-0.165-0.362-0.334-0.543-0.499
	c-0.903-0.829-1.791-1.672-2.661-2.537c-0.079-0.077-0.158-0.155-0.235-0.233c-8.11-8.135-14.683-17.805-19.234-28.533
	c-0.01-0.023-0.02-0.047-0.029-0.07c-4.563-10.78-7.088-22.623-7.088-35.045c0-49.734,40.461-90.195,90.195-90.195
	c8.056,0,14.587-6.531,14.587-14.587s-6.531-14.587-14.587-14.587c-65.82,0-119.369,53.548-119.369,119.369
	c0,10.384,1.339,20.461,3.844,30.072C14.17,226.937,0,256.974,0,288.914c0,59.329,48.268,107.597,107.597,107.597h70.647
	l66.497,80.718c2.771,3.364,6.901,5.313,11.258,5.313c4.357,0,8.487-1.949,11.258-5.313l66.497-80.718h70.647
	c59.329,0,107.597-48.268,107.597-107.597C512,251.138,491.99,216.224,460.126,196.887z M256,445.013l-39.65-48.129
	c6.443-1.513,11.242-7.296,11.242-14.202v-0.759V331.9h56.815v50.023v0.759c0,6.905,4.799,12.689,11.242,14.202L256,445.013z
	 M404.403,367.337H313.58v-50.023c0-8.056-6.531-14.587-14.587-14.587h-85.988c-8.056,0-14.587,6.531-14.587,14.587v50.023h-90.821
	c-43.243,0-78.424-35.181-78.424-78.424c0-20.002,7.627-38.988,20.97-53.35c6.207,10.879,14.05,20.591,23.125,28.891
	c0.251,0.23,0.5,0.46,0.754,0.689c1.233,1.109,2.48,2.198,3.755,3.254c0.413,0.343,0.84,0.67,1.257,1.008
	c0.801,0.645,1.606,1.281,2.423,1.905c0.697,0.534,1.4,1.062,2.111,1.58c0.442,0.322,0.89,0.635,1.336,0.951
	c1.729,1.228,3.488,2.413,5.282,3.55c0.064,0.041,0.128,0.083,0.193,0.124c10.845,6.844,22.858,11.986,35.674,15.061
	c0.181,0.044,0.363,0.083,0.546,0.125c1.956,0.46,3.931,0.869,5.924,1.231c0.632,0.115,1.262,0.233,1.895,0.34
	c0.877,0.144,1.758,0.28,2.64,0.406c1.1,0.158,2.206,0.295,3.314,0.422c0.702,0.079,1.403,0.162,2.108,0.229
	c1.494,0.144,2.995,0.255,4.5,0.343c0.513,0.031,1.028,0.055,1.545,0.079c1.783,0.08,3.569,0.136,5.367,0.136
	c6.17,0,12.234-0.471,18.155-1.378c57.236-8.77,101.216-58.342,101.216-117.992c0-0.009-0.001-0.018-0.001-0.026
	c-0.007-29.868-11.214-58.464-31.14-80.334c20.671-23.689,50.685-37.526,82.442-37.526c60.328,0,109.41,49.081,109.41,109.409
	c0,10.901-1.609,21.685-4.779,32.052c-2.137,6.987,1.224,14.478,7.865,17.525c27.803,12.761,45.768,40.747,45.768,71.298
	C482.826,332.157,447.646,367.337,404.403,367.337z"/>
</svg>
