<?xml version="1.0" encoding="iso-8859-1"?>
<!-- Uploaded to: SVG Repo, www.svgrepo.com, Generator: SVG Repo Mixer Tools -->
<!DOCTYPE svg PUBLIC "-//W3C//DTD SVG 1.1//EN" "http://www.w3.org/Graphics/SVG/1.1/DTD/svg11.dtd">
<svg fill="#bd93f9" height="800px" width="800px" version="1.1" id="Capa_1" xmlns="http://www.w3.org/2000/svg" xmlns:xlink="http://www.w3.org/1999/xlink" 
	 viewBox="0 0 39.989 39.989" xml:space="preserve">
<path id="XMLID_148_" d="M19.995,0C8.952,0,0,8.952,0,19.994c0,11.043,8.952,19.995,19.995,19.995s19.995-8.952,19.995-19.995
	C39.989,8.952,31.037,0,19.995,0z M18.328,26.057c0,0.829-0.671,1.5-1.5,1.5s-1.5-0.671-1.5-1.5V14.724c0-0.829,0.671-1.5,1.5-1.5
	s1.5,0.671,1.5,1.5V26.057z M24.661,26.057c0,0.829-0.671,1.5-1.5,1.5s-1.5-0.671-1.5-1.5V14.724c0-0.829,0.671-1.5,1.5-1.5
	s1.5,0.671,1.5,1.5V26.057z"/>
</svg>
