<?xml version="1.0" encoding="utf-8"?><!-- Uploaded to: SVG Repo, www.svgrepo.com, Generator: SVG Repo Mixer Tools -->
<svg width="800px" height="800px" viewBox="0 0 24 24" fill="none" xmlns="http://www.w3.org/2000/svg">
<path fill-rule="evenodd" clip-rule="evenodd" d="M11.9999 2C8.68624 2 5.99995 4.68629 5.99995 8V9.83098C5.99995 11.2503 5.61422 12.6429 4.88401 13.8599L4.3306 14.7823C3.96354 15.3941 3.78001 15.7 3.76744 15.9497C3.74798 16.3366 3.95368 16.6999 4.29544 16.8823C4.51609 17 4.87281 17 5.58624 17H18.4137C19.1271 17 19.4838 17 19.7045 16.8823C20.0463 16.6999 20.252 16.3366 20.2325 15.9497C20.2199 15.7 20.0364 15.3941 19.6694 14.7824L19.6693 14.7823L19.1159 13.8599C18.3857 12.6429 17.9999 11.2503 17.9999 9.83095V9.31701C17.9999 9.15273 17.9999 9.07059 17.9531 9.02622C17.9063 8.98185 17.8163 8.98668 17.6362 8.99635C17.5911 8.99877 17.5457 9 17.5 9C16.1193 9 15 7.88071 15 6.5C15 5.58144 15.4954 4.77858 16.2336 4.34403C16.4107 4.23979 16.4992 4.18767 16.5091 4.11576C16.5191 4.04385 16.4567 3.97881 16.3321 3.84874C15.24 2.70938 13.7028 2 11.9999 2Z" fill="#ff5555" fill-opacity="0.24"/>
<circle cx="17.5" cy="6.5" r="1.5" fill="#ff5555"/>
<path d="M14.35 18C14.4328 18 14.5007 18.0673 14.493 18.1498C14.4484 18.6254 14.1923 19.0746 13.7678 19.4142C13.2989 19.7893 12.663 20 12 20C11.337 20 10.7011 19.7893 10.2322 19.4142C9.80772 19.0746 9.55165 18.6254 9.50702 18.1498C9.49928 18.0673 9.56716 18 9.65 18L12 18L14.35 18Z" fill="#ff5555"/>
</svg>
